{"title":"Murder on the  Orient Express (1974) 720p BRrip x264 Junaid-Zia","uid":9055212,"size":1183825564,"categoryP":"video","categoryS":"hd___movies","magnet":"?xt=urn:btih:11fe44782174937591d26099a1577fa7f0aa8a43&amp;dn=Murder+on+the++Orient+Express+%281974%29+720p+BRrip+x264+Junaid-Zia+&amp;tr=udp%3A%2F%2Ftracker.openbittorrent.com%3A80&amp;tr=udp%3A%2F%2Fopen.demonii.com%3A1337&amp;tr=udp%3A%2F%2Ftracker.coppersurfer.tk%3A6969&amp;tr=udp%3A%2F%2Fexodus.desync.com%3A6969","seeders":12,"leechers":8,"uploader":"junaidzia","files":-1,"time":1381937799,"description":" &lt;a href=&quot;http://imageshack.us/a/img198/739/4eyl.jpg&quot; rel=&quot;nofollow&quot; target=&quot;_NEW&quot;&gt;http://imageshack.us/a/img198/739/4eyl.jpg&lt;/a&gt;\n\n*******************************************************************************\n\nMurder on the  Orient Express (1974) 720p BRrip x264 Junaid-Zia (PimpRG)\n\n*******************************************************************************\n\nIMDB :\n\n          **** &lt;a href=&quot; http://www.imdb.com/title/tt0071877/&quot; rel=&quot;nofollow&quot; target=&quot;_NEW&quot;&gt; http://www.imdb.com/title/tt0071877/&lt;/a&gt;  *****\n\nDetails :\n\nGeneral\nFormat                         : Matroska\nFile size                      : 1.10 GiB\nDuration                       : 2h 7mn\nOverall bit rate               : 1 228 Kbps\nEncoded date                   : UTC 2013-10-14 03:34:06\n\nVideo\nFormat                         : AVC\nFormat/Info                    : Advanced Video Codec\nFormat profile                 : &lt;a class=&quot;__cf_email__&quot; href=&quot;/cdn-cgi/l/email-protection&quot; data-cfemail=&quot;2860414f4068641c0619&quot;&gt;[email&amp;#160;protected]&lt;/a&gt;&lt;script cf-hash='f9e31' type=&quot;text/javascript&quot;&gt;\n/* &lt;![CDATA[ */!function(){try{var t=&quot;currentScript&quot;in document?document.currentScript:function(){for(var t=document.getElementsByTagName(&quot;script&quot;),e=t.length;e--;)if(t[e].getAttribute(&quot;cf-hash&quot;))return t[e]}();if(t&amp;&amp;t.previousSibling){var e,r,n,i,c=t.previousSibling,a=c.getAttribute(&quot;data-cfemail&quot;);if(a){for(e=&quot;&quot;,r=parseInt(a.substr(0,2),16),n=2;a.length-n;n+=2)i=parseInt(a.substr(n,2),16)^r,e+=String.fromCharCode(i);e=document.createTextNode(e),c.parentNode.replaceChild(e,c)}}}catch(u){}}();/* ]]&gt; */&lt;/script&gt;\nFormat settings, CABAC         : Yes\nFormat settings, ReFrames      : 5 frames\nCodec ID                       : V_MPEG4/ISO/AVC\nDuration                       : 2h 7mn\nBit rate                       : 1 098 Kbps\nWidth                          : 1 280 pixels\nHeight                         : 696 pixels\nDisplay aspect ratio           : 1.85:1\nFrame rate mode                : Constant\nFrame rate                     : 23.976 fps\nColor space                    : YUV\nChroma subsampling             : 4:2:0\nBit depth                      : 8 bits\nScan type                      : Progressive\nSource                         : AMIABLE\nStream size                    : 985 MiB (88%)\nTitle                          : *** Encoded by Junaid-Zia ***\nLanguage                       : English\n\nAudio\nFormat                         : AC-3\nFormat/Info                    : Audio Coding 3\nMode extension                 : CM (complete main)\nFormat settings, Endianness    : Big\nCodec ID                       : A_AC3\nDuration                       : 2h 7mn\nBit rate mode                  : Constant\nBit rate                       : 128 Kbps\nChannel(s)                     : 2 channels\nChannel positions              : Front: L R\nSampling rate                  : 48.0 KHz\nBit depth                      : 16 bits\nCompression mode               : Lossy\nStream size                    : 117 MiB (10%)\nTitle                          : *** Encoded by Junaid-Zia ***\nLanguage                       : English\n\nText\nFormat                         : UTF-8\nCodec ID                       : S_TEXT/UTF8\nCodec ID/Info                  : UTF-8 Plain Text\nTitle                          : Muxed\nLanguage                       : English\n\n\nScreens :\n\n\n[IMG]http://imageshack.us/scaled/large/17/4kdw.jpg\n[IMG]http://imageshack.us/scaled/large/716/5h0t.jpg\n[IMG]http://imageshack.us/scaled/large/24/5g1r.jpg\n[IMG]http://imageshack.us/scaled/large/266/js5z.jpg\n[IMG]http://imageshack.us/scaled/large/4/0fzp.jpg\n[IMG]http://imageshack.us/scaled/large/809/7cja.jpg\n[IMG]http://imageshack.us/scaled/large/35/91x8.jpg\n[IMG]http://imageshack.us/scaled/large/607/o67d.jpg\n[IMG]http://imageshack.us/scaled/large/801/eb74.jpg\n\nOfficial Website: &lt;a href=&quot;\nhttp://pimp4003.se/&quot; rel=&quot;nofollow&quot; target=&quot;_NEW&quot;&gt;\nhttp://pimp4003.se/&lt;/a&gt;\n\n\n[b]Seed After Downloading, Remember Sharing is Caring.[/b]","torrent":{"xt":"urn:btih:11fe44782174937591d26099a1577fa7f0aa8a43","amp;dn":"Murder+on+the++Orient+Express+%281974%29+720p+BRrip+x264+Junaid-Zia+","amp;tr":["udp%3A%2F%2Ftracker.openbittorrent.com%3A80","udp%3A%2F%2Fopen.demonii.com%3A1337","udp%3A%2F%2Ftracker.coppersurfer.tk%3A6969","udp%3A%2F%2Fexodus.desync.com%3A6969"],"infoHash":"11fe44782174937591d26099a1577fa7f0aa8a43","infoHashBuffer":{"type":"Buffer","data":[17,254,68,120,33,116,147,117,145,210,96,153,161,87,127,167,240,170,138,67]},"announce":[],"urlList":[]}}